<?xml version="1.0" encoding="UTF-8" standalone="no"?>
<!-- Created with Inkscape (http://www.inkscape.org/) -->

<svg
   xmlns:dc="http://purl.org/dc/elements/1.1/"
   xmlns:cc="http://creativecommons.org/ns#"
   xmlns:rdf="http://www.w3.org/1999/02/22-rdf-syntax-ns#"
   xmlns:svg="http://www.w3.org/2000/svg"
   xmlns="http://www.w3.org/2000/svg"
   xmlns:sodipodi="http://sodipodi.sourceforge.net/DTD/sodipodi-0.dtd"
   xmlns:inkscape="http://www.inkscape.org/namespaces/inkscape"
   width="3.309371mm"
   height="3.3093708mm"
   viewBox="0 0 3.309371 3.3093708"
   version="1.1"
   id="svg836"
   inkscape:version="0.92.4 (5da689c313, 2019-01-14)"
   sodipodi:docname="ok.svg">
  <defs
     id="defs830" />
  <sodipodi:namedview
     id="base"
     pagecolor="#ffffff"
     bordercolor="#666666"
     borderopacity="1.0"
     inkscape:pageopacity="0.0"
     inkscape:pageshadow="2"
     inkscape:zoom="31.678384"
     inkscape:cx="5.6146694"
     inkscape:cy="6.5122009"
     inkscape:document-units="mm"
     inkscape:current-layer="layer1"
     showgrid="false"
     fit-margin-top="0.1"
     fit-margin-left="0.1"
     fit-margin-right="0.1"
     fit-margin-bottom="0.1"
     inkscape:window-width="1366"
     inkscape:window-height="708"
     inkscape:window-x="0"
     inkscape:window-y="31"
     inkscape:window-maximized="1" />
  <metadata
     id="metadata833">
    <rdf:RDF>
      <cc:Work
         rdf:about="">
        <dc:format>image/svg+xml</dc:format>
        <dc:type
           rdf:resource="http://purl.org/dc/dcmitype/StillImage" />
        <dc:title></dc:title>
      </cc:Work>
    </rdf:RDF>
  </metadata>
  <g
     inkscape:label="Layer 1"
     inkscape:groupmode="layer"
     id="layer1"
     transform="translate(-39.544331,-19.244223)">
    <path
       style="opacity:1;fill:#4d4d4d;fill-opacity:1;stroke:none;stroke-width:0.42707032;stroke-miterlimit:4;stroke-dasharray:none"
       d="m 41.206768,19.254617 a 1.6286467,1.6286467 0 0 0 -1.62925,1.628542 1.6286467,1.6286467 0 0 0 1.62925,1.628542 1.6286467,1.6286467 0 0 0 1.628541,-1.628542 1.6286467,1.6286467 0 0 0 -1.628541,-1.628542 z m 0,0.411555 a 1.2171991,1.2171991 0 0 1 1.216986,1.216987 1.2171991,1.2171991 0 0 1 -1.216986,1.216986 1.2171991,1.2171991 0 0 1 -1.217694,-1.216986 1.2171991,1.2171991 0 0 1 1.217694,-1.216987 z"
       id="path1370"
       inkscape:connector-curvature="0" />
    <path
       style="fill:none;stroke:#4d4d4d;stroke-width:0.39687499;stroke-linecap:round;stroke-linejoin:miter;stroke-miterlimit:4;stroke-dasharray:none;stroke-opacity:1"
       d="m 40.396252,21.041851 0.718288,0.634765 0.801808,-1.386461"
       id="path1454"
       inkscape:connector-curvature="0"
       sodipodi:nodetypes="ccc" />
  </g>
</svg>
