<?xml version="1.0" encoding="UTF-8" standalone="no"?>
<!-- Created with Inkscape (http://www.inkscape.org/) -->

<svg
   xmlns:dc="http://purl.org/dc/elements/1.1/"
   xmlns:cc="http://creativecommons.org/ns#"
   xmlns:rdf="http://www.w3.org/1999/02/22-rdf-syntax-ns#"
   xmlns:svg="http://www.w3.org/2000/svg"
   xmlns="http://www.w3.org/2000/svg"
   xmlns:sodipodi="http://sodipodi.sourceforge.net/DTD/sodipodi-0.dtd"
   xmlns:inkscape="http://www.inkscape.org/namespaces/inkscape"
   width="5.205379mm"
   height="6.4007435mm"
   viewBox="0 0 5.2053792 6.4007441"
   version="1.1"
   id="svg8"
   inkscape:version="0.92.4 (5da689c313, 2019-01-14)"
   sodipodi:docname="place-m.svg">
  <defs
     id="defs2" />
  <sodipodi:namedview
     id="base"
     pagecolor="#ffffff"
     bordercolor="#666666"
     borderopacity="1.0"
     inkscape:pageopacity="0.0"
     inkscape:pageshadow="2"
     inkscape:zoom="15.839192"
     inkscape:cx="6.9042724"
     inkscape:cy="8.4395522"
     inkscape:document-units="mm"
     inkscape:current-layer="layer1"
     showgrid="false"
     fit-margin-top="0.1"
     fit-margin-left="0.1"
     fit-margin-right="0.1"
     fit-margin-bottom="0.1"
     inkscape:window-width="1366"
     inkscape:window-height="708"
     inkscape:window-x="0"
     inkscape:window-y="31"
     inkscape:window-maximized="1" />
  <metadata
     id="metadata5">
    <rdf:RDF>
      <cc:Work
         rdf:about="">
        <dc:format>image/svg+xml</dc:format>
        <dc:type
           rdf:resource="http://purl.org/dc/dcmitype/StillImage" />
        <dc:title></dc:title>
      </cc:Work>
    </rdf:RDF>
  </metadata>
  <g
     inkscape:label="Layer 1"
     inkscape:groupmode="layer"
     id="layer1"
     transform="translate(-56.716772,-24.59147)">
    <path
       style="opacity:0.75899999;fill:#0084ff;fill-opacity:1;stroke:#000000;stroke-width:0.13639793;stroke-miterlimit:4;stroke-dasharray:none"
       d="m 59.31035,25.469851 c -0.967991,2.7e-5 -1.752819,0.784847 -1.752846,1.752847 0,1.415336 1.363422,1.952668 1.752846,3.406013 0.372863,-1.391574 1.752847,-1.83284 1.752847,-3.406013 -2.7e-5,-0.968072 -0.784756,-1.752929 -1.752847,-1.752847 z m 0,0.667938 c 0.57488,1.8e-5 1.040946,0.466102 1.040964,1.040964 -1.8e-5,0.57488 -0.466102,1.040946 -1.040964,1.040974 -0.574879,-2.8e-5 -1.040945,-0.466103 -1.040972,-1.040974 1.8e-5,-0.57488 0.466101,-1.040946 1.040972,-1.040964 z"
       id="path4557-6"
       inkscape:connector-curvature="0"
       sodipodi:nodetypes="cccccccccc" />
    <path
       style="color:#000000;font-style:normal;font-variant:normal;font-weight:normal;font-stretch:normal;font-size:medium;line-height:normal;font-family:sans-serif;font-variant-ligatures:normal;font-variant-position:normal;font-variant-caps:normal;font-variant-numeric:normal;font-variant-alternates:normal;font-feature-settings:normal;text-indent:0;text-align:start;text-decoration:none;text-decoration-line:none;text-decoration-style:solid;text-decoration-color:#000000;letter-spacing:normal;word-spacing:normal;text-transform:none;writing-mode:lr-tb;direction:ltr;text-orientation:mixed;dominant-baseline:auto;baseline-shift:baseline;text-anchor:start;white-space:normal;shape-padding:0;clip-rule:nonzero;display:inline;overflow:visible;visibility:visible;opacity:1;isolation:auto;mix-blend-mode:normal;color-interpolation:sRGB;color-interpolation-filters:linearRGB;solid-color:#000000;solid-opacity:1;vector-effect:none;fill:#4d4d4d;fill-opacity:1;fill-rule:nonzero;stroke:#ffffff;stroke-width:0.5;stroke-linecap:butt;stroke-linejoin:miter;stroke-miterlimit:4;stroke-dasharray:none;stroke-dashoffset:0;stroke-opacity:1;color-rendering:auto;image-rendering:auto;shape-rendering:auto;text-rendering:auto;enable-background:accumulate"
       d="M -0.88085938,-0.8203125 V 0.57617188 5.2851562 H 0.51367188 V 1.5585938 L 5.3789062,6.4296875 6.3671875,5.4394531 1.4980469,0.57617188 h 3.71875 V -0.8203125 H 0.51367188 0.09960937 Z m 12.31250038,0 v 1.39648438 h 3.716797 l -4.869141,4.86328122 0.990234,0.9902344 4.871094,-4.8710937 v 3.7265624 h 1.396484 V 0.57617188 -0.8203125 H 16.140625 Z M 5.3789062,10.349609 0.51367188,15.214844 v -3.720703 h -1.39453126 v 4.708984 1.394531 H 0.09960937 0.51367188 5.2167969 V 16.203125 H 1.4941406 l 4.8730469,-4.873047 z m 5.8906248,0 -0.990234,0.980469 4.873047,4.873047 h -3.720703 v 1.394531 h 6.105468 v -0.988281 -5.115234 h -1.396484 v 3.720703 z"
       transform="matrix(0.26458333,0,0,0.26458333,57.115979,24.974657)"
       id="path2028-5-61"
       inkscape:connector-curvature="0" />
  </g>
</svg>
