<?xml version="1.0" encoding="UTF-8" standalone="no"?>
<!-- Created with Inkscape (http://www.inkscape.org/) -->

<svg
   xmlns:dc="http://purl.org/dc/elements/1.1/"
   xmlns:cc="http://creativecommons.org/ns#"
   xmlns:rdf="http://www.w3.org/1999/02/22-rdf-syntax-ns#"
   xmlns:svg="http://www.w3.org/2000/svg"
   xmlns="http://www.w3.org/2000/svg"
   xmlns:sodipodi="http://sodipodi.sourceforge.net/DTD/sodipodi-0.dtd"
   xmlns:inkscape="http://www.inkscape.org/namespaces/inkscape"
   width="8.4160919mm"
   height="13.528636mm"
   viewBox="0 0 8.4160922 13.528637"
   version="1.1"
   id="svg8"
   inkscape:version="0.92.4 (5da689c313, 2019-01-14)"
   sodipodi:docname="point.svg">
  <defs
     id="defs2" />
  <sodipodi:namedview
     id="base"
     pagecolor="#ffffff"
     bordercolor="#666666"
     borderopacity="1.0"
     inkscape:pageopacity="0.0"
     inkscape:pageshadow="2"
     inkscape:zoom="7.9195959"
     inkscape:cx="3.3133372"
     inkscape:cy="22.277398"
     inkscape:document-units="mm"
     inkscape:current-layer="layer1"
     showgrid="false"
     fit-margin-top="0.1"
     fit-margin-left="0.1"
     fit-margin-right="0.1"
     fit-margin-bottom="0.1"
     inkscape:window-width="1366"
     inkscape:window-height="708"
     inkscape:window-x="0"
     inkscape:window-y="31"
     inkscape:window-maximized="1" />
  <metadata
     id="metadata5">
    <rdf:RDF>
      <cc:Work
         rdf:about="">
        <dc:format>image/svg+xml</dc:format>
        <dc:type
           rdf:resource="http://purl.org/dc/dcmitype/StillImage" />
        <dc:title></dc:title>
      </cc:Work>
    </rdf:RDF>
  </metadata>
  <g
     inkscape:label="Layer 1"
     inkscape:groupmode="layer"
     id="layer1"
     transform="translate(-57.197213,-18.659312)">
    <path
       style="opacity:0.75899999;fill:#008000;stroke:#000000;stroke-width:1.17543308;stroke-miterlimit:4;stroke-dasharray:none"
       d="M 15.904297 0.79882812 C 7.5624449 0.79907379 0.79907001 7.5624449 0.79882812 15.904297 C 0.79882812 28.101175 15.904297 50.027344 15.904297 50.027344 C 15.904297 50.027344 31.009766 29.461372 31.009766 15.904297 C 31.009524 7.5618024 24.246791 0.79816293 15.904297 0.79882812 z M 15.904297 6.5546875 A 8.9709993 8.9709993 0 0 1 24.875 15.525391 A 8.9709993 8.9709993 0 0 1 15.904297 24.496094 A 8.9709993 8.9709993 0 0 1 6.9335938 15.525391 A 8.9709993 8.9709993 0 0 1 15.904297 6.5546875 z "
       transform="matrix(0.26458333,0,0,0.26458333,57.197213,18.659312)"
       id="path4557-6" />
  </g>
</svg>
