<?xml version="1.0" encoding="UTF-8" standalone="no"?>
<!-- Created with Inkscape (http://www.inkscape.org/) -->

<svg
   xmlns:dc="http://purl.org/dc/elements/1.1/"
   xmlns:cc="http://creativecommons.org/ns#"
   xmlns:rdf="http://www.w3.org/1999/02/22-rdf-syntax-ns#"
   xmlns:svg="http://www.w3.org/2000/svg"
   xmlns="http://www.w3.org/2000/svg"
   xmlns:sodipodi="http://sodipodi.sourceforge.net/DTD/sodipodi-0.dtd"
   xmlns:inkscape="http://www.inkscape.org/namespaces/inkscape"
   width="4.5814142mm"
   height="4.6343899mm"
   viewBox="0 0 4.5814143 4.6343899"
   version="1.1"
   id="svg8"
   inkscape:version="0.92.4 (5da689c313, 2019-01-14)"
   sodipodi:docname="world.svg">
  <defs
     id="defs2" />
  <sodipodi:namedview
     id="base"
     pagecolor="#ffffff"
     bordercolor="#666666"
     borderopacity="1.0"
     inkscape:pageopacity="0.0"
     inkscape:pageshadow="2"
     inkscape:zoom="5.6"
     inkscape:cx="31.87356"
     inkscape:cy="31.895852"
     inkscape:document-units="mm"
     inkscape:current-layer="layer1"
     showgrid="false"
     inkscape:window-width="1366"
     inkscape:window-height="708"
     inkscape:window-x="0"
     inkscape:window-y="31"
     inkscape:window-maximized="1"
     fit-margin-top="0.1"
     fit-margin-left="0.1"
     fit-margin-right="0.1"
     fit-margin-bottom="0.1" />
  <metadata
     id="metadata5">
    <rdf:RDF>
      <cc:Work
         rdf:about="">
        <dc:format>image/svg+xml</dc:format>
        <dc:type
           rdf:resource="http://purl.org/dc/dcmitype/StillImage" />
        <dc:title></dc:title>
      </cc:Work>
    </rdf:RDF>
  </metadata>
  <g
     inkscape:label="Layer 1"
     inkscape:groupmode="layer"
     id="layer1"
     transform="translate(-9.2963256,-23.4949)">
    <path
       style="color:#000000;font-style:normal;font-variant:normal;font-weight:normal;font-stretch:normal;font-size:medium;line-height:normal;font-family:sans-serif;font-variant-ligatures:normal;font-variant-position:normal;font-variant-caps:normal;font-variant-numeric:normal;font-variant-alternates:normal;font-feature-settings:normal;text-indent:0;text-align:start;text-decoration:none;text-decoration-line:none;text-decoration-style:solid;text-decoration-color:#000000;letter-spacing:normal;word-spacing:normal;text-transform:none;writing-mode:lr-tb;direction:ltr;text-orientation:mixed;dominant-baseline:auto;baseline-shift:baseline;text-anchor:start;white-space:normal;shape-padding:0;clip-rule:nonzero;display:inline;overflow:visible;visibility:visible;opacity:1;isolation:auto;mix-blend-mode:normal;color-interpolation:sRGB;color-interpolation-filters:linearRGB;solid-color:#000000;solid-opacity:1;vector-effect:none;fill:#4d4d4d;fill-opacity:1;fill-rule:nonzero;stroke:none;stroke-width:0.27181438;stroke-linecap:round;stroke-linejoin:miter;stroke-miterlimit:4;stroke-dasharray:none;stroke-dashoffset:0;stroke-opacity:1;color-rendering:auto;image-rendering:auto;shape-rendering:auto;text-rendering:auto;enable-background:accumulate"
       d="m 11.587085,23.5949 c -0.10481,0 -0.206355,0.01692 -0.303667,0.04841 -1.064883,0.148227 -1.8870924,1.063639 -1.8870924,2.168782 0,1.105911 0.8233614,2.022101 1.8893224,2.169418 0.09664,0.03104 0.197413,0.04778 0.301437,0.04778 0.104059,0 0.204876,-0.01672 0.301545,-0.04778 1.065874,-0.147395 1.88911,-1.063568 1.88911,-2.169418 0,-1.10508 -0.822086,-2.020477 -1.88688,-2.168782 -0.09735,-0.03152 -0.198923,-0.04841 -0.303775,-0.04841 z m -0.136118,0.303879 v 1.072606 c -0.32922,-0.0132 -0.629143,-0.07338 -0.868639,-0.157037 0.05413,-0.148117 0.119305,-0.283377 0.193667,-0.401562 0.161019,-0.255907 0.3579,-0.428898 0.570493,-0.503813 0.03456,-0.0043 0.06936,-0.0077 0.104479,-0.01018 z m 0.272132,0 c 0.03515,0.0024 0.06999,0.0059 0.104589,0.01018 0.212568,0.07493 0.409385,0.247932 0.570386,0.503813 0.07431,0.118102 0.139457,0.253251 0.193562,0.401244 -0.239455,0.08374 -0.539274,0.144142 -0.868532,0.157355 z m 0.824787,0.252067 c 0.189556,0.109677 0.358346,0.250731 0.499565,0.416322 -0.05124,0.04809 -0.121184,0.09508 -0.205135,0.13941 -0.05935,-0.159206 -0.131157,-0.306638 -0.214266,-0.438725 -0.02551,-0.04054 -0.05242,-0.0793 -0.08017,-0.117007 z m -1.921707,1.06e-4 c -0.02772,0.03767 -0.05457,0.0764 -0.08006,0.116901 -0.08319,0.132208 -0.15509,0.279775 -0.214477,0.43915 -0.08403,-0.04436 -0.153886,-0.09155 -0.205136,-0.139729 0.141211,-0.165612 0.310117,-0.306621 0.49967,-0.416322 z m -0.6619099,0.636746 c 0.078677,0.07185 0.1730249,0.13593 0.2814769,0.191438 -0.05696,0.217753 -0.09184,0.452299 -0.101294,0.697374 H 9.6736612 c 0.022656,-0.325582 0.1261096,-0.628401 0.2906079,-0.888812 z m 3.2456339,1.06e-4 c 0.164458,0.260387 0.267848,0.563169 0.290502,0.888706 h -0.470792 c -0.0094,-0.24487 -0.04421,-0.479244 -0.101083,-0.696843 0.108538,-0.05553 0.202683,-0.119916 0.281371,-0.191863 z m -2.709969,0.297722 c 0.272044,0.0932 0.597419,0.147284 0.951033,0.158205 v 0.432779 h -1.034488 c 0.0088,-0.207903 0.03789,-0.406543 0.08345,-0.590984 z m 2.174303,2.12e-4 c 0.04554,0.184385 0.07448,0.382945 0.08335,0.590772 h -1.034491 v -0.432779 c 0.35363,-0.01084 0.679032,-0.06485 0.951138,-0.157993 z m -3.0004696,0.862374 h 0.4706846 c 0.0088,0.228947 0.04006,0.448495 0.09056,0.653946 -0.112877,0.05866 -0.211054,0.126233 -0.2909262,0.2028 C 9.7911577,26.551819 9.6955589,26.260286 9.6737674,25.948112 Z m 0.7427116,0 h 1.034488 v 0.384575 c -0.358272,0.01095 -0.687626,0.06611 -0.961968,0.16139 -0.03939,-0.171538 -0.06435,-0.354981 -0.07253,-0.545965 z m 1.30662,0 h 1.034487 c -0.0082,0.191372 -0.0331,0.375188 -0.07262,0.547027 -0.27413,-0.09568 -0.603479,-0.151252 -0.961862,-0.162452 z m 1.306514,0 h 0.470792 c -0.02186,0.313163 -0.118034,0.605592 -0.271815,0.859189 -0.07953,-0.07692 -0.177256,-0.144855 -0.289971,-0.203756 0.05074,-0.205881 0.08211,-0.425928 0.091,-0.655433 z m -1.578646,0.657238 v 1.120491 c -0.03458,-0.0024 -0.06884,-0.0058 -0.102886,-0.01 -0.213207,-0.0746 -0.410661,-0.2479 -0.572085,-0.50445 -0.08152,-0.129554 -0.152255,-0.279349 -0.209168,-0.444459 0.242116,-0.08618 0.547993,-0.14836 0.88414,-0.161602 z m 0.272132,2.12e-4 c 0.336156,0.01367 0.641897,0.07624 0.883609,0.162771 -0.05683,0.164552 -0.127354,0.313893 -0.208639,0.443079 -0.161428,0.25656 -0.358867,0.429848 -0.572084,0.504449 -0.03403,0.0042 -0.06831,0.0075 -0.102886,0.01 z m -1.406321,0.270754 c 0.06207,0.175121 0.139087,0.336584 0.229343,0.480027 0.02561,0.04069 0.05262,0.07959 0.08049,0.117433 -0.199782,-0.115597 -0.37692,-0.265805 -0.522605,-0.443078 0.05037,-0.05309 0.122241,-0.105419 0.21278,-0.154382 z m 2.539765,0.002 c 0.09034,0.04914 0.161913,0.101559 0.211825,0.154701 -0.145365,0.176344 -0.32191,0.325728 -0.520907,0.440849 0.02788,-0.03787 0.05496,-0.07682 0.08059,-0.117539 0.0899,-0.142879 0.166549,-0.303687 0.228494,-0.478011 z"
       id="path815"
       inkscape:connector-curvature="0" />
  </g>
</svg>
